<svg width="267" height="267" viewBox="0 0 267 267" fill="none" xmlns="http://www.w3.org/2000/svg">
<g clip-path="url(#clip0_3_37)">
<path d="M0 232.573C0 251.589 15.4135 267 34.4271 267H232.573C251.589 267 267 251.586 267 232.573V34.4271C267 15.4115 251.586 0 232.573 0H34.4271C15.4115 0 0 15.4135 0 34.4271V232.573Z" fill="#563D7C"/>
<path d="M110.719 118.104V80.2925H144.002C147.172 80.2925 150.228 80.5567 153.172 81.085C156.115 81.6133 158.719 82.5567 160.983 83.9152C163.247 85.2737 165.059 87.1604 166.417 89.5755C167.776 91.9906 168.455 95.0849 168.455 98.8585C168.455 105.651 166.417 110.557 162.342 113.576C158.266 116.594 153.059 118.104 146.719 118.104H110.719ZM75.1719 52.6699V214.33H153.511C160.757 214.33 167.813 213.424 174.681 211.613C181.549 209.802 187.662 207.009 193.021 203.236C198.379 199.462 202.643 194.594 205.813 188.632C208.983 182.67 210.568 175.613 210.568 167.462C210.568 157.349 208.115 148.708 203.209 141.538C198.304 134.368 190.87 129.349 180.908 126.481C188.153 123.009 193.625 118.557 197.323 113.123C201.021 107.689 202.87 100.896 202.87 92.7453C202.87 85.1981 201.625 78.8586 199.134 73.7265C196.643 68.5944 193.134 64.4812 188.606 61.3869C184.077 58.2925 178.643 56.0662 172.304 54.7077C165.964 53.3492 158.945 52.6699 151.247 52.6699H75.1719ZM110.719 186.707V142.33H149.436C157.134 142.33 163.323 144.104 168.002 147.651C172.681 151.198 175.021 157.123 175.021 165.424C175.021 169.651 174.304 173.123 172.87 175.84C171.436 178.557 169.511 180.707 167.096 182.292C164.681 183.877 161.889 185.009 158.719 185.689C155.549 186.368 152.228 186.707 148.757 186.707H110.719Z" fill="white"/>
</g>
<defs>
<clipPath id="clip0_3_37">
<rect width="267" height="267" fill="white"/>
</clipPath>
</defs>
</svg>
