<svg width="271" height="263" viewBox="0 0 271 263" fill="none" xmlns="http://www.w3.org/2000/svg">
<g clip-path="url(#clip0_3_31)">
<path d="M-0.00137329 161.524V109.213L46.3987 92.1114L71.6155 100.157V170.577L46.3987 178.159L-0.00137329 161.524L46.3987 167.092V106.197L16.1376 113.239V154.485L-1.14451e-05 161.524H-0.00137329ZM121.033 161.891C113.731 161.891 107.881 159.488 103.486 154.687C99.0903 149.889 96.895 143.641 96.895 135.95C96.895 127.687 99.1339 121.094 103.612 116.175C108.089 111.256 114.185 108.796 121.894 108.796C129.007 108.796 134.736 111.185 139.083 115.961C143.43 120.739 145.603 126.983 145.603 134.698C145.603 143.08 143.374 149.707 138.921 154.581C134.468 159.455 128.507 161.891 121.033 161.891ZM121.464 114.243C116.052 114.243 111.659 116.19 108.281 120.083C104.904 123.975 103.215 129.087 103.215 135.415C103.215 141.742 104.863 146.837 108.155 150.694C111.446 154.551 115.74 156.48 121.032 156.48C126.682 156.48 131.138 154.641 134.394 150.963C137.65 147.285 139.28 142.139 139.28 135.523C139.28 128.739 137.698 123.498 134.537 119.796C131.379 116.095 127.02 114.241 121.464 114.241V114.243ZM167.068 105.928C163.739 105.928 160.973 107.059 158.748 109.292C156.521 111.523 155.406 114.563 155.406 118.408V124.351H149.133V129.381H155.406V161.035H161.27V129.381H175.61V161.035H181.474V129.381H190.08V124.351H181.474V118.692C181.474 113.51 183.534 110.929 187.652 110.929C189.114 110.929 190.413 111.227 191.561 111.871V106.591C190.508 106.161 189.101 105.929 187.306 105.929C183.977 105.929 181.18 107.062 178.953 109.293C176.725 111.526 175.611 114.566 175.611 118.409V124.353H161.27V118.695C161.27 113.512 163.326 110.93 167.447 110.93C168.907 110.93 170.206 111.229 171.355 111.873V106.592C170.301 106.159 168.865 105.928 167.068 105.928ZM198.646 115.028C198.148 115.037 197.653 114.946 197.19 114.761C196.727 114.577 196.306 114.301 195.951 113.952C195.209 113.235 194.837 112.329 194.837 111.23C194.837 110.131 195.209 109.219 195.951 108.491C196.303 108.136 196.723 107.857 197.187 107.669C197.65 107.481 198.146 107.389 198.646 107.397C199.724 107.397 200.639 107.76 201.395 108.491C202.15 109.219 202.525 110.131 202.525 111.23C202.533 111.732 202.437 112.23 202.242 112.692C202.048 113.155 201.759 113.572 201.395 113.918C200.64 114.657 199.724 115.028 198.646 115.028ZM201.52 161.024H195.629V124.34H201.518V161.024H201.52ZM234.988 159.341C232.164 161.036 228.808 161.885 224.931 161.885C219.687 161.885 215.454 160.183 212.235 156.779C209.015 153.374 207.4 148.965 207.4 143.542C207.4 137.498 209.136 132.646 212.609 128.98C216.083 125.313 220.716 123.481 226.512 123.481C229.742 123.481 232.594 124.078 235.06 125.273V131.29C232.331 129.381 229.409 128.424 226.297 128.424C222.535 128.424 219.452 129.769 217.045 132.455C214.638 135.143 213.436 138.67 213.436 143.041C213.436 147.341 214.566 150.732 216.828 153.216C219.093 155.699 222.126 156.94 225.936 156.94C229.143 156.94 232.164 155.877 234.988 153.753V159.341ZM270.999 144.153H245.029C245.124 148.236 246.226 151.388 248.331 153.61C250.442 155.829 253.337 156.94 257.026 156.94C261.169 156.94 264.978 155.579 268.448 152.856V158.373C265.216 160.713 260.942 161.884 255.625 161.884C250.428 161.884 246.344 160.219 243.377 156.886C240.407 153.553 238.922 148.869 238.922 142.825C238.922 137.117 240.544 132.465 243.788 128.87C247.033 125.275 251.063 123.479 255.876 123.479C260.688 123.479 264.413 125.032 267.047 128.136C269.68 131.241 270.996 135.552 270.996 141.069V144.152L270.999 144.153ZM264.966 139.173C264.941 135.781 264.121 133.143 262.504 131.256C260.887 129.368 258.641 128.426 255.769 128.426C252.99 128.426 250.633 129.419 248.692 131.4C246.753 133.383 245.556 135.974 245.102 139.173H264.966Z" fill="#EB3C00"/>
</g>
<defs>
<clipPath id="clip0_3_31">
<rect width="271" height="263" fill="white"/>
</clipPath>
</defs>
</svg>
