<svg width="268" height="268" viewBox="0 0 268 268" fill="none" xmlns="http://www.w3.org/2000/svg">
<g clip-path="url(#clip0_3_28)">
<path d="M11.1665 14.5161H256.834V253.483H11.1665V14.5161Z" fill="url(#paint0_radial_3_28)"/>
<path d="M11.1665 14.5161H256.834V253.483H11.1665V14.5161ZM0 264.65H268V3.34956H0V264.65ZM180.677 110.55C171.855 110.55 168.841 115.016 168.841 118.701C168.841 122.721 170.85 125.513 182.687 131.655C200.219 140.142 205.691 148.293 205.691 160.242C205.691 178.108 192.067 187.712 173.642 187.712C163.927 187.712 155.552 185.701 150.75 182.91C149.969 182.575 149.857 182.017 149.857 181.123V164.708C149.857 163.592 150.415 163.256 151.197 163.815C158.232 168.394 166.272 170.403 173.642 170.403C182.464 170.403 186.149 166.718 186.149 161.693C186.149 157.673 183.58 154.1 172.302 148.293C156.445 140.7 149.857 132.995 149.857 120.153C149.857 105.748 161.136 93.7997 180.677 93.7997C190.28 93.7997 196.98 95.2516 200.665 96.9264C201.559 97.4847 201.782 98.3779 201.782 99.1595V114.458C201.782 115.351 201.224 115.909 200.107 115.574C195.194 112.448 187.935 110.55 180.677 110.55ZM84.6434 123.838C87.2118 124.061 89.222 124.061 93.6885 124.061C106.754 124.061 119.037 119.483 119.037 101.728C119.037 87.5468 110.215 80.3997 95.3637 80.3997C90.8972 80.3997 86.6535 80.623 84.6434 80.7346V123.838ZM64.7671 64.5429C64.7671 63.7613 66.3306 63.2026 67.2234 63.2026C74.3705 62.8677 84.9788 62.6443 96.0336 62.6443C126.965 62.6443 139.025 79.6177 139.025 101.281C139.025 129.644 118.478 141.816 93.2419 141.816C88.9987 141.816 87.5472 141.593 84.5317 141.593V184.473C84.5317 185.366 84.1967 185.813 83.1919 185.813H66.1069C65.2137 185.813 64.7666 185.478 64.7666 184.473V64.5429H64.7671Z" fill="#31C5F0"/>
</g>
<defs>
<radialGradient id="paint0_radial_3_28" cx="0" cy="0" r="1" gradientUnits="userSpaceOnUse" gradientTransform="translate(92.0774 68.0689) scale(186.707 180.766)">
<stop stop-color="#34364E" stop-opacity="0.98"/>
<stop offset="1" stop-color="#0C0824"/>
</radialGradient>
<clipPath id="clip0_3_28">
<rect width="268" height="268" fill="white"/>
</clipPath>
</defs>
</svg>
