<svg width="267" height="267" viewBox="0 0 267 267" fill="none" xmlns="http://www.w3.org/2000/svg">
<g clip-path="url(#clip0_3_34)">
<path d="M226.95 0H40.05C17.931 0 0 17.931 0 40.05V226.95C0 249.069 17.931 267 40.05 267H226.95C249.069 267 267 249.069 267 226.95V40.05C267 17.931 249.069 0 226.95 0Z" fill="#CC6699"/>
<path d="M134.543 45.8906C84.4805 63.0996 52.1484 98.0391 55.2773 118.898C58.4062 139.758 89.6953 156.445 103.775 167.396C85.5234 176.783 62.5781 190.863 63.0996 209.115C64.1426 234.146 91.2598 226.324 102.732 219.023C114.205 211.723 125.678 191.385 118.377 170.004C134.543 165.832 148.623 171.047 152.795 174.176C168.961 185.648 160.617 198.686 154.881 200.771C149.145 202.857 152.795 203.9 156.445 202.857C160.096 201.814 167.918 196.6 167.918 187.734C167.918 165.311 143.93 154.881 114.205 162.703C96.9961 144.451 73.5293 136.107 74.5723 116.291C75.0937 108.99 77.7012 90.2168 124.113 66.75C170.525 43.2832 203.379 52.6699 199.207 74.0508C192.949 106.383 136.629 128.285 116.812 109.512C115.77 107.426 112.119 105.861 114.205 111.598C124.635 137.672 209.115 125.678 212.766 70.4004C213.809 41.1973 171.568 33.375 134.543 45.8906ZM89.6953 212.766C76.6582 216.937 77.1797 208.594 77.7012 205.465C79.2656 196.6 86.5664 185.648 108.469 174.697C114.727 194.514 100.646 209.637 89.6953 212.766Z" fill="white"/>
</g>
<defs>
<clipPath id="clip0_3_34">
<rect width="267" height="267" fill="white"/>
</clipPath>
</defs>
</svg>
